<?xml version="1.0" encoding="UTF-8" standalone="no"?>
<svg
   color-interpolation="auto"
   color-rendering="auto"
   fill="#000000"
   fill-opacity="1"
   font-family="Dialog"
   font-size="12px"
   font-style="normal"
   font-weight="normal"
   height="306"
   image-rendering="auto"
   shape-rendering="auto"
   stroke="#000000"
   stroke-dasharray="none"
   stroke-dashoffset="0"
   stroke-linecap="square"
   stroke-linejoin="miter"
   stroke-miterlimit="10"
   stroke-opacity="1"
   stroke-width="1"
   text-rendering="auto"
   width="559"
   version="1.1"
   id="svg50"
   xmlns="http://www.w3.org/2000/svg"
   xmlns:svg="http://www.w3.org/2000/svg">
  <!--Generated by Marvin with Batik SVG Generator-->
  <defs
     id="genericDefs">
    <defs
       id="692771874952-defs1">
      <clipPath
         clipPathUnits="userSpaceOnUse"
         id="6927718748-clipPath1">
        <path
           d="M 0,0 H 730 V 380 H 0 Z"
           id="path1" />
      </clipPath>
      <clipPath
         clipPathUnits="userSpaceOnUse"
         id="692771874303-clipPath1">
        <path
           d="m -184.9518,-211.0373 h 730 v 380 h -730 z"
           id="path2" />
      </clipPath>
      <clipPath
         clipPathUnits="userSpaceOnUse"
         id="692771874699-clipPath1">
        <path
           d="m -339.0142,-96.4604 h 730 v 380 h -730 z"
           id="path3" />
      </clipPath>
      <clipPath
         clipPathUnits="userSpaceOnUse"
         id="692771874531-clipPath1">
        <path
           d="m -205.8336,-29.1125 h 730 v 380 h -730 z"
           id="path4" />
      </clipPath>
      <clipPath
         clipPathUnits="userSpaceOnUse"
         id="692771874302-clipPath1">
        <path
           d="m -288.6167,-278.3853 h 730 v 380 h -730 z"
           id="path5" />
      </clipPath>
      <clipPath
         clipPathUnits="userSpaceOnUse"
         id="69277187415-clipPath1">
        <path
           d="m -641.5555,-3.3556 h 730 v 380 h -730 z"
           id="path6" />
      </clipPath>
      <clipPath
         clipPathUnits="userSpaceOnUse"
         id="692771874681-clipPath1">
        <path
           d="m -641.5555,-52.5316 h 730 v 380 h -730 z"
           id="path7" />
      </clipPath>
      <clipPath
         clipPathUnits="userSpaceOnUse"
         id="692771874840-clipPath1">
        <path
           d="m -641.5545,-270.4684 h 730 v 380 h -730 z"
           id="path8" />
      </clipPath>
      <clipPath
         clipPathUnits="userSpaceOnUse"
         id="692771874568-clipPath1">
        <path
           d="m -641.5545,-319.6444 h 730 v 380 h -730 z"
           id="path9" />
      </clipPath>
    </defs>
  </defs>
  <g
     id="g50">
    <g
       text-rendering="geometricPrecision"
       id="g10"
       transform="translate(0,-28)">
      <path
         clip-path="url(#6927718748-clipPath1)"
         d="m 245.3418,180.7587 v 0 h 70.8136 c 0.823,0 1.4902,0.6672 1.4902,1.4902 0,0.823 -0.6672,1.4902 -1.4902,1.4902 v 0 h -70.8136 c -0.823,0 -1.4902,-0.6672 -1.4902,-1.4902 0,-0.823 0.6672,-1.4902 1.4902,-1.4902 z"
         stroke="none"
         id="path10" />
    </g>
    <g
       text-rendering="geometricPrecision"
       id="g11"
       transform="translate(0,-28)">
      <path
         clip-path="url(#6927718748-clipPath1)"
         d="m 204.1779,126.3777 v 0 l -67.3441,21.8815 c -0.7827,0.2543 -1.6234,-0.1741 -1.8777,-0.9568 -0.2543,-0.7827 0.174,-1.6234 0.9568,-1.8777 v 0 l 67.344,-21.8815 c 0.7827,-0.2544 1.6234,0.174 1.8777,0.9567 0.2544,0.7827 -0.174,1.6234 -0.9567,1.8778 z"
         stroke="none"
         id="path11" />
    </g>
    <g
       text-rendering="geometricPrecision"
       id="g12"
       transform="translate(0,-28)">
      <path
         clip-path="url(#6927718748-clipPath1)"
         d="m 136.8338,216.2386 v 0 l 44.449,14.4424 c 0.7827,0.2543 1.2111,1.095 0.9567,1.8777 -0.2543,0.7827 -1.095,1.2111 -1.8777,0.9568 v 0 l -44.4489,-14.4424 c -0.7828,-0.2543 -1.2111,-1.095 -0.9568,-1.8778 0.2543,-0.7827 1.095,-1.211 1.8777,-0.9567 z"
         stroke="none"
         id="path12" />
    </g>
    <g
       text-rendering="geometricPrecision"
       id="g13"
       transform="translate(0,-28)">
      <path
         clip-path="url(#6927718748-clipPath1)"
         d="m 227.3454,181.9193 c 0.4838,0.6658 1.4157,0.8133 2.0815,0.3296 0.6659,-0.4838 0.8134,-1.4157 0.3297,-2.0815 l -28.8754,-39.7417 c -0.4838,-0.6658 -1.4157,-0.8134 -2.0815,-0.3296 -0.6658,0.4837 -0.8134,1.4156 -0.3296,2.0815 z m 16.7908,1.2055 c 0.4838,0.6658 1.4157,0.8134 2.0815,0.3296 0.6659,-0.4837 0.8134,-1.4156 0.3297,-2.0815 L 204.923,124.0845 c -0.4838,-0.6658 -1.4157,-0.8134 -2.0815,-0.3297 -0.6659,0.4838 -0.8134,1.4157 -0.3297,2.0815 z"
         stroke="none"
         id="path13" />
    </g>
    <g
       text-rendering="geometricPrecision"
       id="g14"
       transform="translate(0,-28)">
      <path
         clip-path="url(#6927718748-clipPath1)"
         d="m 246.5474,183.1248 v 0 l -24.5285,33.759 c -0.4838,0.6658 -1.4157,0.8134 -2.0815,0.3296 -0.6658,-0.4837 -0.8134,-1.4156 -0.3296,-2.0815 v 0 l 24.5284,-33.759 c 0.4838,-0.6658 1.4157,-0.8134 2.0815,-0.3296 0.6659,0.4838 0.8134,1.4157 0.3297,2.0815 z"
         stroke="none"
         id="path14" />
    </g>
    <g
       text-rendering="geometricPrecision"
       id="g15"
       transform="translate(0,-28)">
      <path
         clip-path="url(#6927718748-clipPath1)"
         d="m 357.3193,238.1201 v 0 l 67.3441,-21.8815 c 0.7827,-0.2543 1.6234,0.174 1.8777,0.9567 0.2543,0.7828 -0.174,1.6235 -0.9567,1.8778 v 0 l -67.3441,21.8815 c -0.7827,0.2543 -1.6234,-0.174 -1.8778,-0.9568 -0.2543,-0.7827 0.1741,-1.6234 0.9568,-1.8777 z"
         stroke="none"
         id="path15" />
    </g>
    <g
       text-rendering="geometricPrecision"
       id="g16"
       transform="translate(0,-28)">
      <path
         clip-path="url(#6927718748-clipPath1)"
         d="m 424.6634,148.2592 v 0 l -44.449,-14.4424 c -0.7827,-0.2544 -1.211,-1.095 -0.9567,-1.8778 0.2543,-0.7827 1.095,-1.211 1.8777,-0.9567 v 0 l 44.449,14.4424 c 0.7827,0.2543 1.211,1.095 0.9567,1.8777 -0.2543,0.7827 -1.095,1.2111 -1.8777,0.9568 z"
         stroke="none"
         id="path16" />
    </g>
    <g
       text-rendering="geometricPrecision"
       id="g17"
       transform="translate(0,-28)">
      <path
         clip-path="url(#6927718748-clipPath1)"
         d="m 334.1517,182.5785 c -0.4837,-0.6658 -1.4156,-0.8134 -2.0814,-0.3296 -0.6659,0.4837 -0.8135,1.4157 -0.3297,2.0815 l 28.8754,39.7417 c 0.4837,0.6658 1.4156,0.8134 2.0815,0.3296 0.6658,-0.4838 0.8134,-1.4157 0.3296,-2.0815 z m -16.7908,-1.2056 c -0.4837,-0.6658 -1.4156,-0.8134 -2.0815,-0.3296 -0.6658,0.4838 -0.8134,1.4157 -0.3296,2.0815 l 41.6244,57.2885 c 0.4838,0.6658 1.4157,0.8134 2.0815,0.3296 0.6659,-0.4838 0.8134,-1.4157 0.3297,-2.0815 z"
         stroke="none"
         id="path17" />
    </g>
    <g
       text-rendering="geometricPrecision"
       id="g18"
       transform="translate(0,-28)">
      <path
         clip-path="url(#6927718748-clipPath1)"
         d="m 314.9498,181.3729 v 0 l 24.241,-33.3633 c 0.4838,-0.6658 1.4157,-0.8134 2.0815,-0.3296 0.6658,0.4838 0.8134,1.4157 0.3296,2.0815 v 0 l -24.241,33.3633 c -0.4837,0.6658 -1.4156,0.8134 -2.0815,0.3296 -0.6658,-0.4837 -0.8134,-1.4156 -0.3296,-2.0815 z"
         stroke="none"
         id="path18" />
    </g>
    <g
       text-rendering="geometricPrecision"
       id="g19"
       transform="translate(0,-28)">
      <path
         clip-path="url(#6927718748-clipPath1)"
         d="m 485.706,251.7736 v 0 l 61.3273,-35.4052 c 0.7127,-0.4115 1.6241,-0.1673 2.0356,0.5455 0.4114,0.7127 0.1672,1.6241 -0.5455,2.0356 v 0 l -61.3273,35.4052 c -0.7127,0.4115 -1.6241,0.1673 -2.0356,-0.5455 -0.4114,-0.7127 -0.1672,-1.6241 0.5455,-2.0356 z"
         stroke="none"
         id="path19" />
    </g>
    <g
       text-rendering="geometricPrecision"
       id="g20"
       transform="translate(0,-28)">
      <path
         clip-path="url(#6927718748-clipPath1)"
         d="m 533.413,208.7351 c 0,0.823 0.6671,1.4901 1.4901,1.4901 0.823,0 1.4902,-0.6671 1.4902,-1.4901 V 155.769 c 0,-0.823 -0.6672,-1.4902 -1.4902,-1.4902 -0.823,0 -1.4901,0.6672 -1.4901,1.4902 z m 12.8751,8.9239 c 0,0.823 0.6672,1.4901 1.4902,1.4901 0.823,0 1.4902,-0.6671 1.4902,-1.4901 v -70.8136 c 0,-0.823 -0.6672,-1.4902 -1.4902,-1.4902 -0.823,0 -1.4902,0.6672 -1.4902,1.4902 z"
         stroke="none"
         id="path20" />
    </g>
    <g
       text-rendering="geometricPrecision"
       id="g21"
       transform="translate(0,-28)">
      <path
         clip-path="url(#6927718748-clipPath1)"
         d="m 547.0332,148.1359 v 0 L 485.706,112.7276 c -0.7127,-0.4115 -0.9569,-1.3229 -0.5454,-2.0357 0.4115,-0.7127 1.3229,-0.9569 2.0356,-0.5454 v 0 l 61.3272,35.4084 c 0.7128,0.4115 0.9569,1.3229 0.5454,2.0356 -0.4115,0.7127 -1.3228,0.9569 -2.0356,0.5454 z"
         stroke="none"
         id="path21" />
    </g>
    <g
       text-rendering="geometricPrecision"
       id="g22"
       transform="translate(0,-28)">
      <path
         clip-path="url(#6927718748-clipPath1)"
         d="m 440.0347,209.677 c -0.7128,-0.4115 -1.6241,-0.1673 -2.0357,0.5454 -0.4115,0.7128 -0.1673,1.6242 0.5455,2.0357 l 45.8712,26.4846 c 0.7128,0.4115 1.6242,0.1673 2.0357,-0.5455 0.4115,-0.7127 0.1673,-1.6241 -0.5455,-2.0356 z m -14.1657,6.6883 c -0.7128,-0.4115 -1.6242,-0.1673 -2.0357,0.5454 -0.4115,0.7128 -0.1673,1.6242 0.5454,2.0357 l 61.3273,35.4083 c 0.7127,0.4115 1.6241,0.1673 2.0356,-0.5454 0.4115,-0.7128 0.1673,-1.6241 -0.5454,-2.0356 z"
         stroke="none"
         id="path22" />
    </g>
    <g
       text-rendering="geometricPrecision"
       id="g23"
       transform="translate(0,-28)">
      <path
         clip-path="url(#6927718748-clipPath1)"
         d="m 424.3788,145.5514 c -0.7128,0.4114 -0.957,1.3228 -0.5455,2.0356 0.4115,0.7127 1.3228,0.957 2.0356,0.5455 l 61.3272,-35.4049 c 0.7128,-0.4115 0.957,-1.3228 0.5455,-2.0356 -0.4114,-0.7128 -1.3228,-0.957 -2.0356,-0.5455 z m 14.1658,6.6887 c -0.7128,0.4114 -0.957,1.3228 -0.5456,2.0356 0.4115,0.7127 1.3229,0.957 2.0356,0.5455 l 45.8707,-26.4816 c 0.7127,-0.4115 0.9569,-1.3229 0.5455,-2.0356 -0.4115,-0.7128 -1.3229,-0.957 -2.0356,-0.5455 z"
         stroke="none"
         id="path23" />
    </g>
    <g
       text-rendering="geometricPrecision"
       id="g24"
       transform="translate(0,-28)">
      <path
         clip-path="url(#6927718748-clipPath1)"
         d="m 426.614,146.8419 v 0 70.8139 c 0,0.8231 -0.6672,1.4902 -1.4902,1.4902 -0.823,0 -1.4901,-0.6671 -1.4901,-1.4902 v 0 -70.8139 c 0,-0.823 0.6671,-1.4902 1.4901,-1.4902 0.823,0 1.4902,0.6672 1.4902,1.4902 z"
         stroke="none"
         id="path24" />
    </g>
    <g
       text-rendering="geometricPrecision"
       id="g25"
       transform="translate(0,-28)">
      <path
         clip-path="url(#6927718748-clipPath1)"
         d="m 74.301,254.3544 v 0 L 12.9738,218.9492 c -0.7128,-0.4115 -0.957,-1.3229 -0.5455,-2.0357 0.4115,-0.7127 1.3229,-0.9569 2.0356,-0.5455 v 0 l 61.3273,35.4053 c 0.7127,0.4115 0.9569,1.3228 0.5455,2.0356 -0.4115,0.7127 -1.3229,0.957 -2.0357,0.5455 z"
         stroke="none"
         id="path25" />
    </g>
    <g
       text-rendering="geometricPrecision"
       id="g26"
       transform="translate(0,-28)">
      <path
         clip-path="url(#6927718748-clipPath1)"
         d="m 12.2287,217.6586 c 0,0.823 0.6672,1.4902 1.4902,1.4902 0.823,0 1.4901,-0.6672 1.4901,-1.4902 V 146.845 c 0,-0.823 -0.6671,-1.4902 -1.4901,-1.4902 -0.823,0 -1.4902,0.6672 -1.4902,1.4902 z m 12.8752,-8.9239 c 0,0.823 0.6671,1.4902 1.4902,1.4902 0.823,0 1.4901,-0.6672 1.4901,-1.4902 v -52.9661 c 0,-0.823 -0.6671,-1.4902 -1.4901,-1.4902 -0.8231,0 -1.4902,0.6672 -1.4902,1.4902 z"
         stroke="none"
         id="path26" />
    </g>
    <g
       text-rendering="geometricPrecision"
       id="g27"
       transform="translate(0,-28)">
      <path
         clip-path="url(#6927718748-clipPath1)"
         d="m 12.9738,145.5545 v 0 L 74.301,110.1462 c 0.7127,-0.4116 1.6241,-0.1674 2.0356,0.5454 0.4115,0.7127 0.1674,1.6241 -0.5454,2.0356 v 0 L 14.464,148.1356 c -0.7128,0.4115 -1.6242,0.1673 -2.0357,-0.5455 -0.4115,-0.7127 -0.1673,-1.6241 0.5455,-2.0356 z"
         stroke="none"
         id="path27" />
    </g>
    <g
       text-rendering="geometricPrecision"
       id="g28"
       transform="translate(0,-28)">
      <path
         clip-path="url(#6927718748-clipPath1)"
         d="m 121.4625,154.8211 c 0.7128,0.4115 1.6242,0.1673 2.0357,-0.5455 0.4114,-0.7127 0.1672,-1.6241 -0.5455,-2.0356 L 77.082,125.7581 c -0.7128,-0.4115 -1.6241,-0.1672 -2.0356,0.5455 -0.4115,0.7128 -0.1673,1.6242 0.5455,2.0356 z m 14.1658,-6.6886 c 0.7127,0.4115 1.6241,0.1672 2.0356,-0.5455 0.4115,-0.7128 0.1673,-1.6242 -0.5455,-2.0356 L 75.7912,110.1461 c -0.7128,-0.4115 -1.6242,-0.1672 -2.0357,0.5455 -0.4114,0.7128 -0.1672,1.6242 0.5455,2.0356 z"
         stroke="none"
         id="path28" />
    </g>
    <g
       text-rendering="geometricPrecision"
       id="g29"
       transform="translate(0,-28)">
      <path
         clip-path="url(#6927718748-clipPath1)"
         d="m 137.1185,218.9464 c 0.7127,-0.4115 0.9569,-1.3229 0.5454,-2.0357 -0.4115,-0.7127 -1.3229,-0.9569 -2.0356,-0.5454 l -61.3273,35.408 c -0.7127,0.4115 -0.9569,1.3229 -0.5454,2.0356 0.4115,0.7128 1.3229,0.957 2.0356,0.5455 z m -14.1658,-6.6884 c 0.7128,-0.4115 0.957,-1.3228 0.5455,-2.0356 -0.4116,-0.7127 -1.3229,-0.9569 -2.0357,-0.5454 l -45.8712,26.4843 c -0.7128,0.4115 -0.957,1.3229 -0.5454,2.0356 0.4115,0.7127 1.3228,0.9569 2.0356,0.5454 z"
         stroke="none"
         id="path29" />
    </g>
    <g
       text-rendering="geometricPrecision"
       id="g30"
       transform="translate(0,-28)">
      <path
         clip-path="url(#6927718748-clipPath1)"
         d="m 137.8635,146.8419 v 0 70.8139 c 0,0.8231 -0.6671,1.4902 -1.4901,1.4902 -0.8231,0 -1.4902,-0.6671 -1.4902,-1.4902 v 0 -70.8139 c 0,-0.823 0.6671,-1.4902 1.4902,-1.4902 0.823,0 1.4901,0.6672 1.4901,1.4902 z"
         stroke="none"
         id="path30" />
    </g>
    <g
       text-rendering="geometricPrecision"
       id="g31"
       transform="translate(0,-28)">
      <path
         clip-path="url(#6927718748-clipPath1)"
         d="m 202.3001,124.4999 v 0 l 12.779,-39.3313 c 0.2544,-0.7827 1.095,-1.211 1.8778,-0.9567 0.7827,0.2543 1.2111,1.095 0.9568,1.8777 v 0 l -12.7791,39.3313 c -0.2543,0.7827 -1.095,1.2111 -1.8777,0.9568 -0.7827,-0.2543 -1.2111,-1.095 -0.9568,-1.8778 z"
         stroke="none"
         id="path31" />
    </g>
    <g
       text-rendering="geometricPrecision"
       id="g32"
       transform="translate(0,-28)">
      <path
         clip-path="url(#6927718748-clipPath1)"
         d="m 359.1971,239.9978 v 0 l -12.6161,38.8298 c -0.2543,0.7827 -1.095,1.2111 -1.8778,0.9568 -0.7827,-0.2543 -1.211,-1.095 -0.9567,-1.8778 v 0 l 12.616,-38.8297 c 0.2544,-0.7828 1.0951,-1.2111 1.8778,-0.9568 0.7827,0.2543 1.2111,1.095 0.9568,1.8777 z"
         stroke="none"
         id="path32" />
    </g>
    <g
       font-family="Arial"
       font-size="49px"
       text-rendering="geometricPrecision"
       transform="translate(205.8336,1.1125)"
       id="g44">
      <text
         clip-path="url(#692771874531-clipPath1)"
         stroke="none"
         x="0"
         xml:space="preserve"
         y="46"
         id="text43">OH</text>
    </g>
    <g
       font-family="Arial"
       font-size="49px"
       text-rendering="geometricPrecision"
       transform="translate(288.6167,250.3853)"
       id="g45">
      <text
         clip-path="url(#692771874302-clipPath1)"
         stroke="none"
         x="0"
         xml:space="preserve"
         y="46"
         id="text44">HO</text>
    </g>
    <g
       font-family="Arial"
       font-size="49px"
       text-rendering="geometricPrecision"
       transform="translate(342.49098,33.162052)"
       id="g46">
      <text
         clip-path="url(#69277187415-clipPath1)"
         stroke="none"
         x="0"
         xml:space="preserve"
         y="46"
         id="text45">H</text>
    </g>
    <g
       font-family="Arial"
       font-size="49px"
       text-rendering="geometricPrecision"
       transform="translate(342.49098,76.33805)"
       id="g47">
      <text
         clip-path="url(#692771874681-clipPath1)"
         stroke="none"
         x="0"
         xml:space="preserve"
         y="46"
         id="text46">N</text>
    </g>
    <g
       font-family="Arial"
       font-size="49px"
       text-rendering="geometricPrecision"
       transform="translate(183.53837,180.06517)"
       id="g48">
      <text
         clip-path="url(#692771874840-clipPath1)"
         stroke="none"
         x="0"
         xml:space="preserve"
         y="46"
         id="text47">N</text>
    </g>
    <g
       font-family="Arial"
       font-size="49px"
       text-rendering="geometricPrecision"
       transform="translate(183.53837,223.24117)"
       id="g49">
      <text
         clip-path="url(#692771874568-clipPath1)"
         stroke="none"
         x="0"
         xml:space="preserve"
         y="46"
         id="text48">H</text>
    </g>
  </g>
</svg>
